<svg xmlns="http://www.w3.org/2000/svg" xmlns:xlink="http://www.w3.org/1999/xlink" width="1808.008" height="1119.552" viewBox="0 0 1808.008 1119.552" preserveAspectRatio="none"><defs><style>.a{fill:#b4f7ff;}.b{fill:url(#a);}</style><linearGradient id="a" x1="0.5" x2="0.5" y2="1" gradientUnits="objectBoundingBox"><stop offset="0" stop-color="#b4f7ff"/><stop offset="1" stop-color="#b4f7ff" stop-opacity="0"/></linearGradient></defs><g transform="translate(160.12 -1753.463)"><path class="a" d="M9472.882,4192.565v-4H9364.115a293.929,293.929,0,0,1-79.535,0h-1393.7V3293.377l3.24-3.8c15.512-80.62,87.009-141.565,172.865-141.565,97.2,0,175.988,78.1,175.988,174.43a172.559,172.559,0,0,1-30.243,97.8c65.894,34.545,111.63,101.933,115.133,180.219l328.814,157.984q6.812-8.075,14.42-15.694c96.622-96.619,252.981-96.906,349.245-.643a246.171,246.171,0,0,1,35.815,45.35,294.284,294.284,0,0,1,288.558-180.08c-10.345-54.176,4.8-112.2,45.837-154.7a174.721,174.721,0,0,1,146.316-52.117h162.021v792Z" transform="translate(-8050.999 -1394.552)"/><rect class="b" width="1805" height="79" transform="translate(-160.112 2794.014)"/></g></svg>
