<svg xmlns="http://www.w3.org/2000/svg" width="1386" height="157"><defs><clipPath id="a"><path d="M0 0h1386v157H0z"/></clipPath></defs><g clip-path="url(#a)" transform="rotate(180 692.683 79.3)"><path d="M693.479 71.83c60.643 0 675.678-7.658 691.887 0V-983.928h-2.293v-80.863c-3.346 7.516-35.878 9.979-44.946 9.979-18.613 0-38.7-4.561-57.619-4.561-34.73 0-54.961 19.367-85.591 19.367-37.63 0-48.735-28.533-78.8-28.533-42.87 0-63.477 47.758-112.758 47.758-57.625 0-86.29-70.979-148.641-70.979-43.58 0-61.893 33.328-192.66 32.387-60.638 0-644.951 7.127-661.159 0v75.445h-.9V77.658C3.35 69.574 8.342 66.929 17.41 66.929c18.617 0 38.707 4.9 57.624 4.9 34.724 0 54.955-20.824 85.59-20.824 37.631 0 48.735 30.676 78.8 30.676 42.868 0 63.475-51.35 112.757-51.35 57.628.001 86.293 76.317 148.639 76.317 43.584 0 61.898-35.828 192.659-34.818z" fill="#fff" stroke="rgba(0,0,0,0)" stroke-miterlimit="10"/></g></svg>