<svg xmlns="http://www.w3.org/2000/svg" width="339.22" height="339.22" viewBox="0 0 339.22 339.22"><defs><style>.a,.b,.c,.d,.e,.f,.g,.h,.i,.j,.k,.l,.m{fill:none;stroke:#595085;stroke-linecap:round;stroke-linejoin:round;}.a{stroke-dasharray:0.01 8.001;}.b{stroke-width:1.25px;stroke-dasharray:0 7.929;}.c{stroke-width:1.5px;stroke-dasharray:0 7.97;}.d{stroke-width:1.75px;stroke-dasharray:0 7.881;}.e{stroke-width:2px;stroke-dasharray:0 7.775;}.f{stroke-width:2.25px;stroke-dasharray:0 7.809;}.g{stroke-width:2.5px;stroke-dasharray:0 7.667;}.h{stroke-width:2.75px;stroke-dasharray:0 7.696;}.i{stroke-width:3px;stroke-dasharray:0 7.736;}.j{stroke-width:3.25px;stroke-dasharray:0 7.483;}.k{stroke-width:3.5px;stroke-dasharray:0 7.479;}.l{stroke-width:3.75px;stroke-dasharray:0 7.472;}.m{stroke-width:4px;stroke-dasharray:0 7.448;}</style></defs><g transform="translate(0.707 0.707)"><circle class="a" cx="119.432" cy="119.432" r="119.432" transform="translate(0 168.903) rotate(-45)"/><ellipse class="b" cx="110.357" cy="110.357" rx="110.357" ry="110.357" transform="translate(58.547 58.546)"/><circle class="c" cx="101.281" cy="101.281" r="101.281" transform="translate(25.67 168.903) rotate(-45)"/><circle class="d" cx="92.205" cy="92.205" r="92.205" transform="translate(76.698 76.698)"/><circle class="e" cx="83.129" cy="83.129" r="83.129" transform="translate(73.813 238.033) rotate(-81.017)"/><circle class="f" cx="74.054" cy="74.054" r="74.054" transform="translate(94.85 94.849)"/><ellipse class="g" cx="64.978" cy="64.978" rx="64.978" ry="64.978" transform="matrix(0.178, -0.984, 0.984, 0.178, 93.395, 221.274)"/><ellipse class="h" cx="55.902" cy="55.902" rx="55.902" ry="55.902" transform="translate(104.897 215.307) rotate(-80.942)"/><circle class="i" cx="46.827" cy="46.827" r="46.827" transform="translate(108.837 141.02) rotate(-20.099)"/><ellipse class="j" cx="37.751" cy="37.751" rx="37.751" ry="37.751" transform="translate(131.152 131.152)"/><circle class="k" cx="28.675" cy="28.675" r="28.675" transform="matrix(0.921, -0.389, 0.389, 0.921, 131.324, 153.659)"/><ellipse class="l" cx="19.599" cy="19.599" rx="19.599" ry="19.599" transform="translate(149.304 149.303)"/><ellipse class="m" cx="10.524" cy="10.524" rx="10.524" ry="10.524" transform="translate(155.44 162.56) rotate(-19.775)"/></g></svg>